<mxfile host="app.diagrams.net" agent="Mozilla/5.0 (Windows NT 10.0; Win64; x64) AppleWebKit/537.36 (KHTML, like Gecko) Chrome/134.0.0.0 Safari/537.36 Edg/134.0.0.0" version="26.1.1">
  <diagram name="PÃ¡gina-1" id="QmIryY-INkYu3ry3aYvH">
    <mxGraphModel dx="1426" dy="755" grid="1" gridSize="10" guides="1" tooltips="1" connect="1" arrows="1" fold="1" page="1" pageScale="1" pageWidth="827" pageHeight="1169" math="0" shadow="0">
      <root>
        <mxCell id="0" />
        <mxCell id="1" parent="0" />
        <mxCell id="5f0O21-BCMU4d-DRvPuQ-4" value="" style="edgeStyle=orthogonalEdgeStyle;rounded=0;orthogonalLoop=1;jettySize=auto;html=1;" edge="1" parent="1" source="5f0O21-BCMU4d-DRvPuQ-1" target="5f0O21-BCMU4d-DRvPuQ-2">
          <mxGeometry relative="1" as="geometry" />
        </mxCell>
        <mxCell id="5f0O21-BCMU4d-DRvPuQ-1" value="Amazon IoT Core" style="sketch=0;outlineConnect=0;fontColor=#232F3E;gradientColor=none;strokeColor=#ffffff;fillColor=#232F3E;dashed=0;verticalLabelPosition=middle;verticalAlign=bottom;align=center;html=1;whiteSpace=wrap;fontSize=10;fontStyle=1;spacing=3;shape=mxgraph.aws4.productIcon;prIcon=mxgraph.aws4.iot_core;" vertex="1" parent="1">
          <mxGeometry x="120" y="150" width="80" height="110" as="geometry" />
        </mxCell>
        <mxCell id="5f0O21-BCMU4d-DRvPuQ-7" value="" style="edgeStyle=orthogonalEdgeStyle;rounded=0;orthogonalLoop=1;jettySize=auto;html=1;" edge="1" parent="1" source="5f0O21-BCMU4d-DRvPuQ-2" target="5f0O21-BCMU4d-DRvPuQ-5">
          <mxGeometry relative="1" as="geometry" />
        </mxCell>
        <mxCell id="5f0O21-BCMU4d-DRvPuQ-2" value="" style="verticalLabelPosition=bottom;html=1;verticalAlign=top;align=center;strokeColor=none;fillColor=#00BEF2;shape=mxgraph.azure.notification_topic;" vertex="1" parent="1">
          <mxGeometry x="270" y="165" width="70" height="80" as="geometry" />
        </mxCell>
        <mxCell id="5f0O21-BCMU4d-DRvPuQ-3" value="10 mensagens dia" style="text;whiteSpace=wrap;" vertex="1" parent="1">
          <mxGeometry x="250" y="241.5" width="130" height="40" as="geometry" />
        </mxCell>
        <mxCell id="5f0O21-BCMU4d-DRvPuQ-9" value="" style="edgeStyle=orthogonalEdgeStyle;rounded=0;orthogonalLoop=1;jettySize=auto;html=1;" edge="1" parent="1" source="5f0O21-BCMU4d-DRvPuQ-5" target="5f0O21-BCMU4d-DRvPuQ-8">
          <mxGeometry relative="1" as="geometry" />
        </mxCell>
        <mxCell id="5f0O21-BCMU4d-DRvPuQ-5" value="Sns" style="outlineConnect=0;dashed=0;verticalLabelPosition=bottom;verticalAlign=top;align=center;html=1;shape=mxgraph.aws3.sns;fillColor=#D9A741;gradientColor=none;" vertex="1" parent="1">
          <mxGeometry x="414" y="166.75" width="76.5" height="76.5" as="geometry" />
        </mxCell>
        <mxCell id="5f0O21-BCMU4d-DRvPuQ-11" value="" style="edgeStyle=orthogonalEdgeStyle;rounded=0;orthogonalLoop=1;jettySize=auto;html=1;" edge="1" parent="1" source="5f0O21-BCMU4d-DRvPuQ-8" target="5f0O21-BCMU4d-DRvPuQ-10">
          <mxGeometry relative="1" as="geometry" />
        </mxCell>
        <mxCell id="5f0O21-BCMU4d-DRvPuQ-8" value="Cloud Watch" style="outlineConnect=0;dashed=0;verticalLabelPosition=bottom;verticalAlign=top;align=center;html=1;shape=mxgraph.aws3.cloudwatch;fillColor=#759C3E;gradientColor=none;" vertex="1" parent="1">
          <mxGeometry x="570" y="158.5" width="82.5" height="93" as="geometry" />
        </mxCell>
        <mxCell id="5f0O21-BCMU4d-DRvPuQ-13" value="" style="edgeStyle=orthogonalEdgeStyle;rounded=0;orthogonalLoop=1;jettySize=auto;html=1;" edge="1" parent="1" source="5f0O21-BCMU4d-DRvPuQ-10" target="5f0O21-BCMU4d-DRvPuQ-12">
          <mxGeometry relative="1" as="geometry" />
        </mxCell>
        <mxCell id="5f0O21-BCMU4d-DRvPuQ-10" value="Amazon Managed Grafana" style="sketch=0;points=[[0,0,0],[0.25,0,0],[0.5,0,0],[0.75,0,0],[1,0,0],[0,1,0],[0.25,1,0],[0.5,1,0],[0.75,1,0],[1,1,0],[0,0.25,0],[0,0.5,0],[0,0.75,0],[1,0.25,0],[1,0.5,0],[1,0.75,0]];points=[[0,0,0],[0.25,0,0],[0.5,0,0],[0.75,0,0],[1,0,0],[0,1,0],[0.25,1,0],[0.5,1,0],[0.75,1,0],[1,1,0],[0,0.25,0],[0,0.5,0],[0,0.75,0],[1,0.25,0],[1,0.5,0],[1,0.75,0]];outlineConnect=0;fontColor=#232F3E;fillColor=#E7157B;strokeColor=#ffffff;dashed=0;verticalLabelPosition=bottom;verticalAlign=top;align=center;html=1;fontSize=12;fontStyle=0;aspect=fixed;shape=mxgraph.aws4.resourceIcon;resIcon=mxgraph.aws4.managed_service_for_grafana;" vertex="1" parent="1">
          <mxGeometry x="572.25" y="350" width="78" height="78" as="geometry" />
        </mxCell>
        <mxCell id="5f0O21-BCMU4d-DRvPuQ-12" value="Ebs" style="outlineConnect=0;dashed=0;verticalLabelPosition=bottom;verticalAlign=top;align=center;html=1;shape=mxgraph.aws3.volume;fillColor=#E05243;gradientColor=none;" vertex="1" parent="1">
          <mxGeometry x="426" y="351.5" width="52.5" height="75" as="geometry" />
        </mxCell>
      </root>
    </mxGraphModel>
  </diagram>
</mxfile>
